<?xml version="1.0" encoding="utf-8"?>
<!-- Generator: Adobe Illustrator 23.0.0, SVG Export Plug-In . SVG Version: 6.00 Build 0)  -->
<svg version="1.1" id="Layer_1" xmlns="http://www.w3.org/2000/svg" xmlns:xlink="http://www.w3.org/1999/xlink" x="0px" y="0px" width="16" height="16" fill="currentColor" class="bi bi-send-fill"
	 viewBox="0 0 16 16" style="enable-background:new 0 0 16 16;" xml:space="preserve">
<path d="M15.6,8.5c0.3-0.1,0.4-0.4,0.3-0.7c-0.1-0.1-0.1-0.2-0.3-0.3L1.2,1.4l0,0L0.8,1.2c-0.3-0.1-0.5,0-0.7,0.3
	c0,0.1-0.1,0.2,0,0.3l0.1,0.5l0,0L1.5,8l-1.3,5.8v0l-0.1,0.5c-0.1,0.3,0.1,0.5,0.4,0.6c0.1,0,0.2,0,0.3,0
	C0.8,14.8,15.6,8.5,15.6,8.5z M13,8.5H2.4l0.1-0.4c0-0.1,0-0.1,0-0.2L2.4,7.5H13L14.2,8L13,8.5L13,8.5z"/>
</svg>
